<svg xmlns="http://www.w3.org/2000/svg" width="137.556" height="150" viewBox="0 0 137.556 150"><defs><style>.a{fill:#264674;}</style></defs><g transform="translate(-21.238)"><g transform="translate(21.238)"><path class="a" d="M153.852,54.6h-48.12V49.863h6.353a8.922,8.922,0,0,0,7.369-13.937L97.633,3.9a8.917,8.917,0,0,0-14.738,0L61.072,35.925a8.922,8.922,0,0,0,7.369,13.937h6.353V54.6c-50.764,0-48.742-.011-49.094.024a4.948,4.948,0,0,0-4.462,4.918v85.517A4.958,4.958,0,0,0,26.527,150H153.852a4.942,4.942,0,0,0,4.942-4.942V59.541A4.95,4.95,0,0,0,153.852,54.6Zm-83.58-14.62L90.263,10.636l19.991,29.343H100.79a4.942,4.942,0,0,0-4.942,4.942V70.835H84.679V44.921a4.942,4.942,0,0,0-4.942-4.942Zm4.523,24.5v8.071a8.174,8.174,0,0,0,8.165,8.165H97.567a8.174,8.174,0,0,0,8.165-8.165V64.483h34.093L90.016,104.561,40.207,64.483ZM31.122,69.861l44.748,36.006L31.122,136Zm11.59,70.254,41.22-27.761a9.17,9.17,0,0,0,12.182-.014l41.415,27.775H42.713Zm106.2-4.271-44.726-30,44.726-35.988Z" transform="translate(-21.238)"/></g></g></svg>