<svg xmlns="http://www.w3.org/2000/svg" width="241.448" height="104.342" viewBox="0 0 241.448 104.342"><defs><style>.a{fill:#264674;}</style></defs><g transform="translate(0 -145.37)"><g transform="translate(0 145.37)"><path class="a" d="M221.538,145.37H19.911A19.933,19.933,0,0,0,0,165.281v40.325a19.933,19.933,0,0,0,19.911,19.911H157.017a3.781,3.781,0,1,0,0-7.561H19.911a12.364,12.364,0,0,1-12.35-12.35V165.28a12.364,12.364,0,0,1,12.35-12.35H221.537a12.364,12.364,0,0,1,12.35,12.35v20.163a3.781,3.781,0,0,0,7.561,0V165.28A19.933,19.933,0,0,0,221.538,145.37Z" transform="translate(0 -145.37)"/></g><g transform="translate(169.367 161.5)"><g transform="translate(0 0)"><path class="a" d="M415.1,212.456v-8.939a23.943,23.943,0,1,0-47.886,0v8.939a11.864,11.864,0,0,0-8.065,11.224v12.1a32.008,32.008,0,0,0,64.017,0v-12.1A11.865,11.865,0,0,0,415.1,212.456Zm-40.325-8.939a16.382,16.382,0,1,1,32.764,0v8.317H374.775Zm40.829,32.26a24.447,24.447,0,1,1-48.894,0v-12.1a4.29,4.29,0,0,1,4.285-4.285H411.32a4.29,4.29,0,0,1,4.285,4.285v12.1Z" transform="translate(-359.149 -179.574)"/></g></g><g transform="translate(193.562 209.89)"><path class="a" d="M418.268,282.188a7.81,7.81,0,0,0-3.781,14.646v2.619a3.781,3.781,0,0,0,7.561,0v-2.619a7.81,7.81,0,0,0-3.781-14.646Z" transform="translate(-410.455 -282.188)"/></g><g transform="translate(78.778 165.532)"><path class="a" d="M200.663,212.826l-8.3-4.791,8.3-4.791a3.78,3.78,0,1,0-3.781-6.548l-8.3,4.791V191.9a3.781,3.781,0,1,0-7.561,0v9.582l-8.3-4.791a3.78,3.78,0,1,0-3.781,6.548l8.3,4.791-8.3,4.791a3.78,3.78,0,1,0,3.781,6.548l8.3-4.791v9.582a3.781,3.781,0,0,0,7.561,0v-9.582l8.3,4.791a3.78,3.78,0,1,0,3.781-6.548Z" transform="translate(-167.053 -188.124)"/></g><g transform="translate(30.388 165.532)"><path class="a" d="M98.049,212.826l-8.3-4.791,8.3-4.791a3.78,3.78,0,0,0-3.781-6.548l-8.3,4.791V191.9a3.781,3.781,0,1,0-7.561,0v9.582l-8.3-4.791a3.78,3.78,0,0,0-3.781,6.548l8.3,4.791-8.3,4.791a3.78,3.78,0,1,0,3.781,6.548l8.3-4.791v9.582a3.781,3.781,0,0,0,7.561,0v-9.582l8.3,4.791a3.78,3.78,0,0,0,3.781-6.548Z" transform="translate(-64.439 -188.124)"/></g><g transform="translate(127.169 165.532)"><path class="a" d="M303.277,212.826l-8.3-4.791,8.3-4.791A3.78,3.78,0,0,0,299.5,196.7l-8.3,4.791V191.9a3.781,3.781,0,1,0-7.561,0v9.582l-8.3-4.791a3.78,3.78,0,0,0-3.781,6.548l8.3,4.791-8.3,4.791a3.78,3.78,0,1,0,3.781,6.548l8.3-4.791v9.582a3.781,3.781,0,0,0,7.561,0v-9.582l8.3,4.791a3.78,3.78,0,1,0,3.781-6.548Z" transform="translate(-269.667 -188.124)"/></g></g></svg>